<svg xmlns="http://www.w3.org/2000/svg" viewBox="0 0 540 900" width="540" height="900" role="img" aria-label="Nursing Exam Preparation concept screen - practice question">
  <defs>
    <linearGradient id="screen" x1="0" y1="0" x2="0" y2="1">
      <stop offset="0" stop-color="#eef4fb"/>
      <stop offset="1" stop-color="#f9fbfe"/>
    </linearGradient>
    <linearGradient id="qcard" x1="0" y1="0" x2="1" y2="1">
      <stop offset="0" stop-color="#ffffff"/>
      <stop offset="1" stop-color="#eaf2f7"/>
    </linearGradient>
  </defs>
  <rect x="18" y="12" width="504" height="876" rx="52" fill="#0d1526"/>
  <rect x="34" y="28" width="472" height="844" rx="42" fill="url(#screen)"/>
  <text x="62" y="78" font-family="'Segoe UI', sans-serif" font-size="30" font-weight="600" fill="#1b2b48">09:41</text>
  <g fill="#1b2b48"><rect x="380" y="58" width="22" height="10" rx="3"/><rect x="412" y="58" width="22" height="10" rx="3"/><rect x="444" y="58" width="22" height="10" rx="3"/></g>
  <rect x="346" y="126" width="116" height="36" rx="18" fill="#0f2a52"/>
  <text x="404" y="150" text-anchor="middle" font-family="'Segoe UI', sans-serif" font-size="16" font-weight="600" fill="#8fd8ff">CONCEPT</text>
  <text x="70" y="158" font-family="'Segoe UI', sans-serif" font-size="30" font-weight="700" fill="#0f2a52">Practice</text>
  <text x="70" y="196" font-family="'Segoe UI', sans-serif" font-size="20" fill="#5b6e8c">Fundamentals of Nursing</text>
  <text x="70" y="252" font-family="'Segoe UI', sans-serif" font-size="19" font-weight="600" fill="#10233f">Question 12 of 25</text>
  <rect x="70" y="272" width="400" height="14" rx="7" fill="#dfe9f5"/>
  <rect x="70" y="272" width="200" height="14" rx="7" fill="#1f7dff"/>
  <text x="470" y="260" text-anchor="end" font-family="'Segoe UI', sans-serif" font-size="16" fill="#5b6e8c">00:42</text>
  <rect x="70" y="316" width="400" height="240" rx="26" fill="url(#qcard)" stroke="#d2e1f2"/>
  <text x="104" y="372" font-family="'Segoe UI', sans-serif" font-size="23" font-weight="600" fill="#10233f">A nurse is preparing to</text>
  <text x="104" y="406" font-family="'Segoe UI', sans-serif" font-size="23" font-weight="600" fill="#10233f">administer a medication.</text>
  <rect x="104" y="430" width="330" height="10" rx="5" fill="#dfe9f5"/>
  <rect x="104" y="452" width="290" height="10" rx="5" fill="#dfe9f5"/>
  <rect x="104" y="474" width="310" height="10" rx="5" fill="#dfe9f5"/>
  <rect x="70" y="580" width="400" height="62" rx="18" fill="#ffffff" stroke="#d2e1f2"/>
  <circle cx="112" cy="611" r="15" fill="none" stroke="#93a5c2" stroke-width="2"/>
  <text x="148" y="618" font-family="'Segoe UI', sans-serif" font-size="20" fill="#33445f">Check the client's allergies</text>
  <rect x="70" y="656" width="400" height="62" rx="18" fill="#ffffff" stroke="#d2e1f2"/>
  <circle cx="112" cy="687" r="15" fill="none" stroke="#93a5c2" stroke-width="2"/>
  <text x="148" y="694" font-family="'Segoe UI', sans-serif" font-size="20" fill="#33445f">Document after administration</text>
  <rect x="70" y="732" width="400" height="62" rx="18" fill="#ffffff" stroke="#d2e1f2"/>
  <circle cx="112" cy="763" r="15" fill="none" stroke="#93a5c2" stroke-width="2"/>
  <text x="148" y="770" font-family="'Segoe UI', sans-serif" font-size="20" fill="#33445f">Check the five rights</text>
  <rect x="70" y="808" width="400" height="62" rx="18" fill="#1f7dff"/>
  <text x="270" y="846" text-anchor="middle" font-family="'Segoe UI', sans-serif" font-size="22" font-weight="600" fill="#ffffff">Next</text>
</svg>